# Blender 3.3.0
# www.blender.org
mtllib TvTable.mtl
o TvTable_01
v -0.900000 0.110000 -0.692202
v -0.900000 0.520000 -0.692202
v -0.900000 0.110000 -1.052202
v -0.900000 0.520000 -1.052202
v 0.900000 0.110000 -0.692202
v 0.900000 0.520000 -0.692202
v 0.900000 0.110000 -1.052202
v 0.900000 0.520000 -1.052202
v 0.880000 0.110000 -1.052202
v -0.050000 0.110000 -1.052202
v -0.050000 0.520000 -1.052202
v 0.880000 0.520000 -1.052202
v -0.050000 0.110000 -0.692202
v 0.880000 0.110000 -0.692202
v 0.880000 0.520000 -0.692202
v -0.050000 0.520000 -0.692202
v -0.900000 0.130500 -0.692202
v -0.900000 0.499500 -0.692202
v -0.900000 0.499500 -1.052202
v -0.900000 0.130500 -1.052202
v 0.900000 0.499500 -1.052202
v 0.900000 0.130500 -1.052202
v 0.900000 0.499500 -0.692202
v 0.900000 0.130500 -0.692202
v 0.880000 0.499500 -0.692202
v 0.880000 0.130500 -0.692202
v -0.050000 0.499500 -0.692202
v -0.050000 0.130500 -0.692202
v -0.050000 0.499500 -1.052202
v -0.050000 0.130500 -1.052202
v 0.880000 0.499500 -1.052202
v 0.880000 0.130500 -1.052202
v -0.060000 0.110000 -1.052202
v -0.060000 0.520000 -0.692202
v -0.060000 0.520000 -1.052202
v -0.060000 0.110000 -0.692202
v -0.060000 0.130500 -1.052202
v -0.060000 0.499500 -1.052202
v -0.060000 0.130500 -0.692202
v -0.060000 0.499500 -0.692202
v -0.880000 0.110000 -1.052202
v -0.880000 0.520000 -0.692202
v -0.880000 0.130500 -0.692202
v -0.880000 0.499500 -0.692202
v -0.880000 0.520000 -1.052202
v -0.880000 0.110000 -0.692202
v -0.880000 0.130500 -1.052202
v -0.880000 0.499500 -1.052202
v -0.867297 0.000000 -0.720716
v -0.867297 0.110000 -0.720716
v -0.867297 0.000000 -0.754780
v -0.867297 0.110000 -0.754780
v -0.821818 0.000000 -0.720716
v -0.821818 0.110000 -0.720716
v -0.821818 0.000000 -0.754780
v -0.821818 0.110000 -0.754780
v 0.867297 0.000000 -0.720716
v 0.867297 0.110000 -0.720716
v 0.867297 0.000000 -0.754780
v 0.867297 0.110000 -0.754780
v 0.821818 0.000000 -0.720716
v 0.821818 0.110000 -0.720716
v 0.821818 0.000000 -0.754780
v 0.821818 0.110000 -0.754780
v -0.867297 0.000000 -1.023687
v -0.867297 0.110000 -1.023687
v -0.867297 0.000000 -0.989623
v -0.867297 0.110000 -0.989623
v -0.821818 0.000000 -1.023687
v -0.821818 0.110000 -1.023687
v -0.821818 0.000000 -0.989623
v -0.821818 0.110000 -0.989623
v 0.867298 0.000000 -1.023687
v 0.867298 0.110000 -1.023687
v 0.867298 0.000000 -0.989623
v 0.867298 0.110000 -0.989623
v 0.821818 0.000000 -1.023687
v 0.821818 0.110000 -1.023687
v 0.821818 0.000000 -0.989623
v 0.821818 0.110000 -0.989623
v -0.050000 0.310000 -1.052202
v 0.880000 0.310000 -1.052202
v 0.880000 0.310000 -0.692202
v -0.050000 0.310000 -0.692202
v 0.880000 0.289500 -0.692202
v -0.050000 0.289500 -0.692202
v -0.050000 0.289500 -1.052202
v 0.880000 0.289500 -1.052202
vn -1.0000 -0.0000 -0.0000
vn -0.0000 -0.0000 -1.0000
vn 1.0000 -0.0000 -0.0000
vn -0.0000 -0.0000 1.0000
vn -0.0000 -1.0000 -0.0000
vn -0.0000 1.0000 -0.0000
vt 0.578119 0.000000
vt 0.832988 0.646498
vt 0.000000 0.323249
vt 0.578119 0.646498
vt 0.323249 0.000000
vt 0.323249 0.646498
vt 0.000000 0.000000
vt 0.832988 0.323249
vt 0.323249 0.323249
vt 0.578119 0.323249
vt 0.323249 0.323249
vt 0.578119 0.323249
vt 0.000000 0.646498
vt 0.323249 0.323249
vt 0.323249 0.000000
vt 0.578119 0.646498
vt 0.832988 0.000000
vt 0.578119 0.000000
vt 0.323249 0.646498
vt 0.000000 0.323249
vt 0.319657 0.000000
vt 0.832988 0.003592
vt 0.152645 0.000000
vt 0.832988 0.170604
vt 0.578119 0.170604
vt 0.170604 0.323249
vt 0.003592 0.323249
vt 0.578119 0.003592
vt 0.152645 0.323249
vt 0.578119 0.152645
vt 0.319657 0.323249
vt 0.578119 0.319657
vt 0.003592 0.646498
vt 0.323249 0.319657
vt 0.170604 0.646498
vt 0.323249 0.152645
vt 0.565375 0.000000
vt 0.820244 0.646498
vt 0.335992 0.000000
vt 0.590862 0.646498
vt 0.590862 0.323249
vt 0.820245 0.323249
vt 0.335993 0.646498
vt 0.590862 0.000000
vt 0.565375 0.646498
vt 0.820245 0.000000
vt 0.335993 0.323249
vt 0.565375 0.323249
vt 0.335993 0.319657
vt 0.792789 0.969747
vt 0.000000 0.969747
vt 0.792789 0.969747
vt 0.565375 0.319657
vt 0.229383 0.969747
vt 0.229383 0.646498
vt 0.625777 0.969747
vt 0.335993 0.152645
vt 0.458765 0.646498
vt 0.959801 0.969747
vt 0.565375 0.152645
vt 0.229383 0.969747
vt 0.590862 0.170604
vt 0.625777 0.646498
vt 0.458765 0.969747
vt 0.820245 0.170604
vt 0.959801 0.646498
vt 0.590862 0.003592
vt 0.792789 0.646498
vt 0.000000 0.646498
vt 0.792789 0.646498
vt 0.820245 0.003592
vt 0.229383 0.646498
vt 0.832988 0.172400
vt 0.150850 0.000000
vt 0.172400 0.646498
vt 0.323249 0.150850
vt 0.578119 0.172399
vt 0.172400 0.323249
vt 0.150850 0.323249
vt 0.578119 0.150850
vt 0.820245 0.172399
vt 0.590862 0.172399
vt 0.565375 0.150850
vt 0.335993 0.150850
vt 0.003592 0.000000
vt 0.832988 0.319657
vt 0.319657 0.646498
vt 0.323249 0.003592
vt 0.565375 0.003592
vt 0.335993 0.003592
vt 0.578119 0.319657
vt 0.319657 0.323249
vt 0.003592 0.323249
vt 0.578119 0.003592
vt 0.820245 0.319657
vt 0.590862 0.319657
vt 0.889061 0.391629
vt 0.902328 0.558641
vt 0.889061 0.460008
vt 0.902328 0.627020
vt 0.858475 0.391629
vt 0.918663 0.490261
vt 0.858475 0.460008
vt 0.918663 0.558641
vt 0.832988 0.490261
vt 0.910495 0.558641
vt 0.832988 0.558641
vt 0.910495 0.627020
vt 0.910495 0.490261
vt 0.863574 0.490261
vt 0.910495 0.558641
vt 0.863574 0.558641
vt 0.858475 0.323249
vt 0.910495 0.490261
vt 0.858475 0.391629
vt 0.910495 0.558641
vt 0.889061 0.323249
vt 0.910495 0.558641
vt 0.889061 0.391629
vt 0.910495 0.627020
vt 0.863574 0.558641
vt 0.902328 0.490261
vt 0.863574 0.627020
vt 0.902328 0.558641
vt 0.918663 0.558641
vt 0.832988 0.558641
vt 0.918663 0.627020
vt 0.832988 0.627020
vt 0.863574 0.490261
vt 0.926830 0.490261
vt 0.863574 0.558641
vt 0.926830 0.558641
vt 0.894161 0.490261
vt 0.918663 0.558641
vt 0.894161 0.558641
vt 0.918663 0.627020
vt 0.919647 0.323249
vt 0.918663 0.490261
vt 0.919647 0.391629
vt 0.918663 0.558641
vt 0.926830 0.558641
vt 0.889061 0.323249
vt 0.926830 0.627020
vt 0.889061 0.391629
vt 0.919647 0.391629
vt 0.894161 0.490261
vt 0.919647 0.460008
vt 0.894161 0.558641
vt 0.889061 0.391629
vt 0.902328 0.558641
vt 0.889061 0.460008
vt 0.902328 0.627020
vt 0.863574 0.558641
vt 0.902328 0.490261
vt 0.863574 0.627020
vt 0.902328 0.558641
vt 0.894161 0.558641
vt 0.894161 0.627020
vt 0.625777 0.646498
vt 0.832988 0.490261
vt 0.458765 0.646498
vt 0.832988 0.323249
vt 0.458765 0.969747
vt 0.858475 0.323249
vt 0.625777 0.969747
vt 0.858475 0.490261
vt 0.845731 0.323249
vt 1.000000 0.323249
vt 0.845731 0.490261
vt 0.832988 0.323249
vt 0.845731 0.490261
vt 0.832988 0.000000
vt 0.845731 0.323249
vt 1.000000 0.000000
s 0
usemtl TvTable_01
f 18/40/1 2/4/1 4/10/1 19/41/1
f 31/67/2 12/28/2 8/18/2 21/44/2
f 21/43/3 8/19/3 6/14/3 23/47/3
f 44/90/4 42/88/4 2/5/4 18/39/4
f 9/21/5 7/15/5 5/11/5 14/31/5
f 45/92/6 4/9/6 2/6/6 42/87/6
f 8/20/6 12/27/6 15/33/6 6/13/6
f 12/27/6 11/26/6 16/35/6 15/33/6
f 33/74/5 10/23/5 13/29/5 36/79/5
f 10/23/5 9/21/5 14/31/5 13/29/5
f 23/47/4 6/14/4 15/34/4 25/49/4
f 25/49/4 15/34/4 16/36/4 27/57/4
f 38/82/2 35/77/2 11/25/2 29/62/2
f 29/62/2 11/25/2 12/28/2 31/67/2
f 10/24/2 30/65/2 32/71/2 9/22/2
f 30/64/3 29/61/3 27/55/3 28/58/3
f 33/73/2 37/81/2 30/65/2 10/24/2
f 37/81/2 38/82/2 29/62/2 30/65/2
f 14/32/4 26/53/4 28/60/4 13/30/4
f 32/70/6 30/66/6 28/59/6 26/52/6
f 5/12/4 24/48/4 26/53/4 14/32/4
f 24/48/4 23/47/4 25/49/4 26/53/4
f 46/94/4 43/89/4 17/37/4 1/1/4
f 43/89/4 44/90/4 18/39/4 17/37/4
f 7/16/3 22/45/3 24/48/3 5/12/3
f 22/45/3 21/43/3 23/47/3 24/48/3
f 9/22/2 32/71/2 22/46/2 7/17/2
f 32/71/2 31/67/2 21/44/2 22/46/2
f 1/2/1 17/38/1 20/42/1 3/8/1
f 17/38/1 18/40/1 19/41/1 20/42/1
f 29/63/5 31/68/5 25/50/5 27/56/5
f 31/69/1 32/72/1 26/54/1 25/51/1
f 28/60/4 27/57/4 40/84/4 39/83/4
f 13/30/4 28/60/4 39/83/4 36/80/4
f 47/95/2 48/96/2 38/82/2 37/81/2
f 41/86/2 47/95/2 37/81/2 33/73/2
f 48/96/2 45/91/2 35/77/2 38/82/2
f 41/85/5 33/74/5 36/79/5 46/93/5
f 11/26/6 35/78/6 34/75/6 16/35/6
f 27/57/4 16/36/4 34/76/4 40/84/4
f 3/7/5 41/85/5 46/93/5 1/3/5
f 19/41/2 4/10/2 45/91/2 48/96/2
f 3/8/2 20/42/2 47/95/2 41/86/2
f 20/42/2 19/41/2 48/96/2 47/95/2
f 39/83/4 40/84/4 44/90/4 43/89/4
f 36/80/4 39/83/4 43/89/4 46/94/4
f 35/78/6 45/92/6 42/87/6 34/75/6
f 40/84/4 34/76/4 42/88/4 44/90/4
f 49/97/1 50/99/1 52/103/1 51/101/1
f 51/102/2 52/104/2 56/111/2 55/109/2
f 55/110/3 56/112/3 54/107/3 53/105/3
f 53/106/4 54/108/4 50/100/4 49/98/4
f 57/113/3 59/117/3 60/119/3 58/115/3
f 59/118/2 63/125/2 64/127/2 60/120/2
f 63/126/1 61/121/1 62/123/1 64/128/1
f 61/122/4 57/114/4 58/116/4 62/124/4
f 65/129/1 67/133/1 68/135/1 66/131/1
f 67/134/4 71/141/4 72/143/4 68/136/4
f 71/142/3 69/137/3 70/139/3 72/144/3
f 69/138/2 65/130/2 66/132/2 70/140/2
f 73/145/3 74/147/3 76/151/3 75/149/3
f 75/150/4 76/152/4 80/158/4 79/157/4
f 79/157/1 80/158/1 78/155/1 77/153/1
f 77/154/2 78/156/2 74/148/2 73/146/2
f 82/161/6 81/159/6 84/165/6 83/163/6
f 85/167/4 83/164/4 84/166/4 86/169/4
f 87/171/2 81/160/2 82/162/2 88/173/2
f 87/172/5 88/174/5 85/168/5 86/170/5
